<svg width="202" height="60" viewBox="0 0 202 60" fill="none" xmlns="http://www.w3.org/2000/svg">
<g clip-path="url(#clip0)">
<path d="M59.8824 24.2098C58.1585 20.0433 55.3821 16.4052 51.8299 13.6582C48.2778 10.9111 44.0739 9.15109 39.6373 8.55344C35.2007 7.95579 30.6863 8.54141 26.544 10.2519C22.4017 11.9624 18.7761 14.7381 16.0286 18.3023C13.2811 21.8666 11.5076 26.0948 10.8849 30.5658C10.2622 35.0368 10.8119 39.5943 12.4794 43.7842C14.1469 47.9741 16.8739 51.65 20.3886 54.4457C23.9033 57.2413 28.083 59.059 32.5111 59.7176C31.931 57.6093 31.341 55.2791 30.821 52.8077C32.3338 53.7975 33.9261 54.658 35.5812 55.38V55.38C35.5812 55.38 35.7012 57.5588 35.8612 59.9899C37.6496 60.021 39.4362 59.8621 41.1915 59.5158C41.1462 59.2623 41.1462 59.0027 41.1915 58.7492C41.4815 56.8628 42.2816 53.4634 42.4416 51.2744C43.5949 50.1862 44.5733 48.9236 45.3417 47.5319V47.5319L45.2817 47.9758C44.7317 52.273 43.5816 56.8628 42.8816 58.1338C42.655 58.5546 42.376 58.9444 42.0516 59.2939C45.6715 58.4373 49.0635 56.7968 51.9923 54.4862C54.9211 52.1755 57.3167 49.25 59.013 45.9125C60.7092 42.5749 61.6656 38.9052 61.8157 35.1577C61.9658 31.4102 61.3062 27.6746 59.8824 24.2098V24.2098ZM58.4124 28.033C57.9723 28.4667 57.0623 28.7592 56.9123 27.4479C56.7623 26.1365 56.7223 25.2186 56.7223 25.2186C56.7223 25.2186 54.7922 21.7586 54.0721 21.7182C53.3521 21.6779 48.2419 25.2186 46.8918 26.7619C45.7217 28.0632 45.4917 27.9724 45.4917 30.2623C45.4917 31.9872 45.7117 38.5037 45.5917 43.4869L37.4413 45.6759C34.8795 46.4175 32.2743 46.9969 29.6409 47.4109L28.6409 41.5299H28.5009L25.9308 28.2448C25.9308 28.2448 22.1206 26.7922 20.7205 26.3988C20.0631 26.1087 19.3372 26.0144 18.6283 26.127C17.9195 26.2396 17.2575 26.5544 16.7203 27.0343C16.1723 27.5183 15.7341 28.1157 15.4355 28.7859C15.137 29.4561 14.9851 30.1833 14.9902 30.918C15.2016 31.3868 15.3625 31.8772 15.4702 32.3806C15.5202 32.8648 14.2702 32.8144 13.4701 32.8144C12.6701 32.8144 12.5501 31.3618 13.1801 29.657C13.6716 28.3462 14.2809 27.0834 15.0002 25.8843C15.5413 24.8133 16.2391 23.8305 17.0703 22.9691C17.0703 22.9691 17.2103 22.6261 18.3204 22.727C19.4304 22.8278 25.6007 23.1607 25.6007 23.1607L25.6507 20.8709C32.3574 19.9368 39.1215 19.4851 45.8917 19.5192C45.8917 20.1345 45.8917 20.7498 45.8917 21.3652C48.4561 20.1847 51.2174 19.5004 54.0321 19.3477C54.1827 19.3438 54.3319 19.3778 54.4663 19.4464C54.6007 19.5151 54.7161 19.6163 54.8022 19.7411C55.1422 20.1749 57.2123 22.7673 57.4523 23.1406C58.1246 24.1097 58.7358 25.1204 59.2824 26.1668C59.095 26.8293 58.8011 27.4564 58.4124 28.0229V28.033Z" fill="#FDC305"/>
<path d="M56.4628 21.8594C56.9328 22.4647 57.3428 22.9993 57.4628 23.1607C58.1351 24.1298 58.7463 25.1406 59.2929 26.1869C59.1027 26.8278 58.8123 27.4339 58.4329 27.9825C57.9929 28.4163 57.0828 28.7088 56.9328 27.3974C56.7828 26.0861 56.7228 25.2186 56.7228 25.2186C56.7228 25.2186 54.7927 21.7586 54.0727 21.7182C53.3526 21.6779 48.2424 25.2186 46.8923 26.7619C45.7223 28.0632 45.4922 27.9724 45.4922 30.2623C45.4922 31.7754 45.6623 36.9704 45.6223 41.5904C47.4323 41.7922 50.0925 42.2966 50.8925 43.4869C50.8925 43.4869 50.6025 36.2441 58.7029 40.037C58.7029 40.037 58.9829 30.1614 70.1635 32.6933C66.3627 28.1922 61.7035 24.5079 56.4628 21.8594V21.8594Z" fill="#F06351"/>
<path d="M45.9323 19.5192C45.9729 13.9295 45.5043 8.34782 44.5322 2.84465C44.5322 2.84465 44.3822 1.53328 43.6622 2.60255C43.068 3.88085 42.6636 5.24041 42.4621 6.63752C38.1871 6.36084 33.896 6.47563 29.6415 6.98049C28.8214 4.20645 27.4214 2.94552 26.7513 3.27841C26.0813 3.61129 26.0013 6.58708 26.0013 6.58708L25.6713 20.8709C32.3846 19.9358 39.1554 19.4841 45.9323 19.5192V19.5192Z" fill="#F06351"/>
<path d="M45.3515 47.5319C45.4815 46.4526 45.5515 45.0202 45.5915 43.4364L37.4415 45.6254C34.8809 46.384 32.2758 46.9804 29.6415 47.4109L30.7515 52.4546C30.7515 52.5656 30.7515 52.6765 30.8215 52.7875C32.3342 53.7774 33.9265 54.6378 35.5815 55.3598C38.0002 54.1935 40.3038 52.7986 42.4615 51.1937V51.2542C43.6096 50.1714 44.5845 48.9158 45.3515 47.5319V47.5319Z" fill="#E55645"/>
<path d="M32.0016 16.3618C31.9516 16.2609 33.0016 17.0477 33.4116 17.2898C33.8216 17.5319 34.0216 17.7135 34.0216 17.885C34.0216 18.0565 33.7616 18.228 33.4016 18.228C33.0416 18.228 32.4816 18.1069 32.4016 17.9657C32.3216 17.8245 33.0016 17.9657 33.3416 17.9657H33.6316C33.0159 17.5114 32.4672 16.9714 32.0016 16.3618Z" fill="black"/>
<path d="M39.5019 16.4728C39.5019 16.4728 38.5019 17.764 38.4119 17.8245C38.3219 17.885 38.2419 18.1675 38.6019 18.117C39.0152 18.0548 39.4231 17.9604 39.8219 17.8346C39.9319 17.774 39.8919 17.6328 39.7019 17.653C39.5119 17.6732 39.0219 17.7034 38.7019 17.764L39.5519 16.4829C39.5519 16.4829 39.5819 16.3618 39.5019 16.4728Z" fill="black"/>
<path d="M36.3617 22.6362C36.8253 22.4302 37.2084 22.0756 37.4517 21.6274C37.7317 20.9617 37.4517 20.7095 37.0117 20.6187C36.4064 20.5073 35.7817 20.6297 35.2617 20.9617C34.8717 21.3349 34.9217 21.6981 35.2617 21.9704C35.5995 22.2376 35.9691 22.4613 36.3617 22.6362V22.6362Z" fill="black"/>
<path d="M36.0016 23.9072C35.8868 24.136 35.7308 24.3412 35.5416 24.5124C35.2568 24.7436 34.9067 24.8778 34.5416 24.8958C33.991 24.9503 33.4405 24.7916 33.0016 24.4519C32.8 24.333 32.6206 24.1794 32.4716 23.998C32.3715 23.8881 32.2486 23.802 32.1116 23.7458C32.1116 23.7458 32.8616 27.8917 34.6816 28.5575C36.5016 29.2233 36.8416 27.7909 36.8916 27.4075C36.9525 26.2595 36.6666 25.1198 36.0716 24.1392C36.0716 23.8366 36.0516 24.0383 36.0016 23.9072Z" fill="#F06351"/>
<path d="M34.3016 25.0572C33.8336 24.9893 33.3841 24.8265 32.9802 24.5786C32.5763 24.3307 32.2264 24.0028 31.9516 23.6147C31.927 23.5869 31.9134 23.551 31.9134 23.5138C31.9134 23.4766 31.927 23.4407 31.9516 23.4129C31.9646 23.3995 31.9802 23.3888 31.9974 23.3816C32.0145 23.3743 32.033 23.3705 32.0516 23.3705C32.0702 23.3705 32.0887 23.3743 32.1058 23.3816C32.123 23.3888 32.1386 23.3995 32.1516 23.4129C32.3991 23.7631 32.713 24.0603 33.0752 24.2871C33.4374 24.514 33.8407 24.666 34.2616 24.7344C34.5946 24.7091 34.9169 24.6045 35.202 24.4292C35.4871 24.2538 35.7269 24.0127 35.9016 23.7256L36.0416 23.534L36.1416 23.7559C36.1416 23.7559 36.5216 24.5225 37.1416 24.5629C37.7616 24.6032 38.2016 24.1392 38.7716 23.2616C38.7928 23.2295 38.8258 23.2072 38.8633 23.1996C38.9008 23.1921 38.9398 23.1999 38.9716 23.2213C39.0034 23.2427 39.0255 23.2759 39.033 23.3138C39.0405 23.3516 39.0328 23.3909 39.0116 23.423C38.3449 24.4116 37.7149 24.8857 37.1216 24.8453C36.8923 24.8147 36.6726 24.7326 36.4788 24.6052C36.285 24.4778 36.122 24.3082 36.0016 24.109C35.8059 24.3846 35.5518 24.6127 35.2577 24.7767C34.9637 24.9407 34.637 25.0366 34.3016 25.0572Z" fill="black"/>
<path d="M36.2616 38.6348C38.3327 38.6348 40.0116 36.9412 40.0116 34.852C40.0116 32.7629 38.3327 31.0693 36.2616 31.0693C34.1905 31.0693 32.5116 32.7629 32.5116 34.852C32.5116 36.9412 34.1905 38.6348 36.2616 38.6348Z" fill="#FDC305"/>
<path d="M41.2316 31.7754L38.1016 33.0968L39.2516 27.4176L31.7516 37.2629L34.8816 35.9415L33.7316 41.6308L41.2316 31.7754ZM33.8416 35.6389L38.0016 30.1816L37.1916 34.2165L39.1916 33.3894L35.0016 38.8568L35.8116 34.8218L33.8416 35.6389Z" fill="#111111"/>
<path d="M32.4415 34.156C33.0601 34.156 33.5615 33.6502 33.5615 33.0262C33.5615 32.4023 33.0601 31.8964 32.4415 31.8964C31.823 31.8964 31.3215 32.4023 31.3215 33.0262C31.3215 33.6502 31.823 34.156 32.4415 34.156Z" fill="#111111"/>
<path d="M38.9619 38.2515C39.3982 38.2515 39.7519 37.8947 39.7519 37.4546C39.7519 37.0145 39.3982 36.6577 38.9619 36.6577C38.5256 36.6577 38.1719 37.0145 38.1719 37.4546C38.1719 37.8947 38.5256 38.2515 38.9619 38.2515Z" fill="#111111"/>
<path d="M45.8823 21.345C44.077 22.9865 42.3769 24.7419 40.792 26.6005C39.2134 28.4458 37.4318 30.1041 35.4818 31.5434C35.2618 31.0087 33.8517 30.0101 33.8517 30.0101C33.8517 30.0101 30.7115 27.8413 28.6514 26.1365C27.5378 25.2009 26.4886 24.1898 25.5113 23.1103L23.5112 22.9993C26.3984 27.2534 30.6281 30.3963 35.5118 31.9166C36.3718 31.7754 38.7919 30.0303 40.602 28.6079C42.7435 26.7709 44.749 24.7784 46.6023 22.6463C47.1005 22.0491 47.4868 21.3654 47.7424 20.6288C46.6023 21.0121 45.8823 21.345 45.8823 21.345Z" fill="#F06351"/>
<path d="M65.2227 3.5306L56.7627 13.0531L55.5427 11.0457L63.6927 0L65.2227 3.5306Z" fill="#FDC305"/>
<path d="M62.6531 17.4109L68.1931 13.265L67.4131 9.49226L62.0131 14.3443L62.6531 17.4109Z" fill="#FDC305"/>
<path d="M59.923 49.8016L66.053 53.0094L69.063 50.649L62.373 47.8749L59.923 49.8016Z" fill="#FDC305"/>
<path d="M1.95001 6.02219L5.02001 2.63281L14.31 11.7115L13.09 14.0114L1.95001 6.02219Z" fill="#FDC305"/>
<path d="M7.38003 16.4223L2.68003 13.265L0.280029 17.1688L5.43003 19.5898L7.38003 16.4223Z" fill="#FDC305"/>
<path d="M13.91 53.0094L9.35999 56.3887L12.16 60L16.18 55.9449L13.91 53.0094Z" fill="#FDC305"/>
<path d="M25.9313 28.2448C25.9313 28.2448 22.1211 26.7922 20.721 26.3988C20.0636 26.1087 19.3377 26.0144 18.6289 26.127C17.9201 26.2396 17.258 26.5544 16.7208 27.0343C16.1728 27.5183 15.7346 28.1157 15.4361 28.7859C15.1375 29.4561 14.9856 30.1833 14.9907 30.918C15.2021 31.3868 15.3631 31.8772 15.4708 32.3806C15.5208 32.8648 14.2707 32.8144 13.4707 32.8144C12.6706 32.8144 12.5506 31.3618 13.1807 29.657C13.6722 28.3462 14.2814 27.0834 15.0007 25.8843C9.55047 28.7492 0 35.3665 0 35.3665C2.73182 35.2003 5.47292 35.2814 8.1904 35.6086C13.4407 36.1432 13.1907 40.3194 13.1907 40.3194C15.0373 39.8059 16.9192 39.4317 18.8209 39.1997C20.941 39.0585 21.091 41.3383 21.091 41.3383L21.6211 45.232C22.4259 44.3537 23.3134 43.5564 24.2712 42.8514C25.5057 41.8546 27.0776 41.384 28.6514 41.54V41.54L25.9313 28.2448Z" fill="#F06351"/>
<path d="M85.6642 42.3672C84.634 40.8274 84.1414 38.9854 84.2642 37.1318V29.5662C84.1342 27.6991 84.6193 25.8408 85.6441 24.2804C86.5708 23.0767 88.1541 22.4781 90.3941 22.4849C92.6341 22.4916 94.1508 23.0195 94.9441 24.0686C95.9115 25.3687 96.3835 26.9761 96.2741 28.5979V30.3732H92.1341V28.4465C92.1286 27.9396 92.0851 27.4338 92.0041 26.9334C91.9541 26.5712 91.7892 26.235 91.5341 25.9751C91.3767 25.8389 91.1939 25.7357 90.9964 25.6717C90.799 25.6076 90.5908 25.5838 90.3841 25.6019C90.0874 25.5572 89.7841 25.6059 89.5157 25.7412C89.2473 25.8766 89.0268 26.0921 88.8841 26.3584C88.6212 27.0669 88.5055 27.8222 88.5441 28.5777V38.1809C88.4985 38.9413 88.6322 39.7019 88.9341 40.4001C89.0784 40.652 89.2925 40.8559 89.5501 40.9868C89.8077 41.1176 90.0976 41.1696 90.3841 41.1365C90.6657 41.1767 90.9526 41.1261 91.204 40.9921C91.4554 40.8581 91.6585 40.6474 91.7841 40.3901C92.026 39.6803 92.1313 38.9305 92.0941 38.1809V36.1634H96.2341V37.9085C96.356 39.5542 95.9225 41.1931 95.0041 42.5588C94.1241 43.6685 92.6041 44.2132 90.4441 44.2132C88.2842 44.2132 86.5942 43.6079 85.6642 42.3672Z" fill="#111111"/>
<path d="M101.915 22.7774H106.655L110.655 43.961H106.715L106.005 39.2804H102.685L101.885 43.9307H97.8848L101.915 22.7774ZM105.565 36.6174L104.305 28.1036L103.055 36.6174H105.565Z" fill="#111111"/>
<path d="M113.725 25.965H110.485V22.7774H121.205V25.965H118.005V43.9307H113.715L113.725 25.965Z" fill="#111111"/>
<path d="M129.616 22.7774H137.746V24.9765H132.546V31.967H136.766V34.0551H132.546V41.8124H137.796V43.9307H129.616V22.7774Z" fill="#444444"/>
<path d="M140.157 22.7774H142.157L148.157 36.8292V22.7774H150.597V43.961H148.727L142.727 29.5158V43.9307H140.247L140.157 22.7774Z" fill="#444444"/>
<path d="M153.828 22.7774H161.948V24.9765H156.748V31.967H161.008V34.0551H156.788V41.8124H162.008V43.9307H153.828V22.7774Z" fill="#444444"/>
<path d="M164.358 22.7774H168.578C170.241 22.6424 171.897 23.111 173.248 24.0989C174.248 24.9765 174.738 26.4089 174.738 28.3961C174.738 31.0861 173.875 32.7303 172.148 33.3288L175.148 43.9307H172.308L169.558 34.0047H167.288V43.9307H164.358V22.7774ZM168.358 31.8561C169.322 31.9501 170.285 31.6766 171.058 31.0894C171.372 30.7143 171.607 30.2782 171.748 29.8081C171.889 29.338 171.933 28.8437 171.878 28.3557C171.898 27.6714 171.8 26.9887 171.588 26.3383C171.502 26.0984 171.369 25.8784 171.198 25.6913C171.026 25.5042 170.819 25.3537 170.588 25.2488C169.939 24.9802 169.239 24.8596 168.538 24.8958H167.248V31.8964L168.358 31.8561Z" fill="#444444"/>
<path d="M178.679 42.3672C177.723 40.7397 177.28 38.8576 177.409 36.9704V29.9092C177.374 28.5466 177.543 27.1864 177.909 25.8742C178.198 24.8877 178.811 24.0302 179.649 23.4432C180.66 22.8286 181.83 22.5335 183.009 22.5958C183.771 22.5227 184.54 22.6184 185.262 22.8763C185.984 23.1341 186.642 23.5479 187.189 24.0888C188.148 25.4446 188.602 27.0988 188.469 28.7592V29.5461H185.719V28.8904C185.738 28.1061 185.677 27.322 185.539 26.5501C185.448 26.0554 185.177 25.6129 184.779 25.3093C184.26 25.0003 183.66 24.8562 183.059 24.8958C182.406 24.8394 181.756 25.042 181.249 25.4607C180.834 25.8576 180.563 26.3832 180.479 26.9536C180.352 27.7845 180.295 28.6248 180.309 29.4654V37.3235C180.229 38.5176 180.432 39.7136 180.899 40.8137C181.17 41.152 181.515 41.4233 181.906 41.6067C182.297 41.7902 182.725 41.881 183.156 41.8723C183.587 41.8635 184.011 41.7554 184.394 41.5562C184.778 41.357 185.111 41.072 185.369 40.7229C185.851 39.5594 186.059 38.2993 185.979 37.041V35.5481H183.319V33.46H188.619V43.9307H186.809L186.519 41.4997C186.29 42.3073 185.796 43.013 185.119 43.502C184.442 43.991 183.621 44.2345 182.789 44.193C182.007 44.2626 181.22 44.1317 180.501 43.8125C179.783 43.4933 179.156 42.9961 178.679 42.3672V42.3672Z" fill="#444444"/>
<path d="M194.699 36.466L190.169 22.7774H192.889L196.099 32.9859L199.259 22.7774H202.009L197.509 36.466V43.9307H194.709L194.699 36.466Z" fill="#444444"/>
</g>
<defs>
<clipPath id="clip0">
<rect width="202" height="60" fill="white"/>
</clipPath>
</defs>
</svg>
