<svg width="101" height="19" viewBox="0 0 101 19" fill="none" xmlns="http://www.w3.org/2000/svg">
<g clip-path="url(#clip0)">
<path d="M1.26449 17.346C0.36955 16.0847 -0.0747041 14.5725 1.02076e-05 13.0418V6.6623C-0.108365 5.11513 0.308071 3.5761 1.18546 2.28122C2.05478 1.28203 3.39829 0.820862 5.37403 0.820862C7.34978 0.820862 8.61425 1.28203 9.40455 2.1275C10.2626 3.19835 10.6846 4.53922 10.59 5.89369V7.43091H6.71754V5.66311C6.74881 5.14026 6.66808 4.6168 6.48045 4.12589C6.38016 3.92773 6.2212 3.76328 6.02403 3.65371C5.82686 3.54413 5.60049 3.49443 5.37403 3.511C4.82082 3.511 4.42568 3.66472 4.26762 4.04902C4.08883 4.59514 4.00862 5.16724 4.03053 5.73997V13.9641C3.98879 14.5198 4.0978 15.0763 4.34665 15.5782C4.5047 15.9625 4.89985 16.1162 5.45306 16.1162C6.00627 16.1162 6.32239 15.9625 6.48045 15.5782C6.66013 15.0587 6.74049 14.5117 6.71754 13.9641V12.1194H10.59V13.6567C10.6704 15.0332 10.2508 16.3935 9.40455 17.4997C8.61425 18.422 7.27075 18.8832 5.37403 18.8832C3.47732 18.8063 2.05478 18.3452 1.26449 17.346Z" fill="#111111"/>
<path d="M15.2527 1.05267H19.7574L23.0767 18.577H19.4413L18.809 14.8877H16.2011L15.5688 18.577H11.8544L15.2527 1.05267ZM18.4929 12.5818L17.5446 5.74119L16.5962 12.5818H18.4929Z" fill="#111111"/>
<path d="M25.8427 3.97339H23.1557V1.05267H32.5602V3.89653H29.8732V18.577H25.8427V3.97339Z" fill="#111111"/>
<path d="M39.7519 1.05267H46.7066V2.89734H42.2019V8.66191H45.8372V10.4297H42.2019V16.886H46.7066V18.6538H39.6729V1.05267H39.7519Z" fill="#111111"/>
<path d="M48.7614 1.05267H50.5L55.6369 12.6587V1.05267H57.6917V18.577H56.1111L50.8952 6.58666V18.577H48.7614V1.05267Z" fill="#111111"/>
<path d="M60.0626 1.05267H67.0172V2.89734H62.5125V8.66191H66.1479V10.4297H62.5125V16.886H67.0172V18.6538H60.0626V1.05267Z" fill="#111111"/>
<path d="M69.072 1.05283H72.7074C74.1375 0.956757 75.5587 1.33619 76.7379 2.12889C77.6072 2.82063 78.0024 4.05041 78.0024 5.66449C78.0024 7.89346 77.2911 9.27696 75.7895 9.73813L78.3185 18.5003H75.8686L73.4977 10.2762H71.5219V18.5003H68.993V1.05283H69.072ZM72.5493 8.58521C73.364 8.6505 74.1761 8.43262 74.8412 7.97032C75.3154 7.58602 75.5524 6.81741 75.5524 5.66449C75.5743 5.09176 75.4941 4.51966 75.3154 3.97355C75.1375 3.58168 74.832 3.25758 74.446 3.05122C73.9017 2.80999 73.3042 2.70433 72.7074 2.74377H71.601V8.50835H72.5493V8.58521Z" fill="#111111"/>
<path d="M81.1635 17.2703C80.342 15.9264 79.9564 14.3727 80.0571 12.8123V6.97088C80.0376 5.85705 80.1705 4.74563 80.4522 3.66586C80.7167 2.85899 81.2437 2.15761 81.9538 1.66747C82.8362 1.15948 83.8542 0.918657 84.8779 0.975726C86.5375 0.975726 87.723 1.36003 88.4342 2.2055C89.2524 3.3219 89.6438 4.68126 89.5406 6.04855V6.66344H87.1698V6.12541C87.1733 5.4817 87.1205 4.83886 87.0117 4.20389C86.9451 3.80263 86.7177 3.44337 86.3795 3.20469C85.9353 2.92113 85.4081 2.7862 84.8779 2.82039C84.3112 2.78508 83.7504 2.94872 83.2973 3.28156C83.1114 3.43391 82.9595 3.62156 82.8507 3.83302C82.742 4.04448 82.6788 4.27529 82.6651 4.51133C82.5609 5.19846 82.5081 5.89202 82.507 6.58658V13.1198C82.4487 14.1151 82.6104 15.111 82.9812 16.0405C83.2973 16.6554 83.9295 16.886 84.8779 16.886C85.2523 16.9313 85.6322 16.868 85.9697 16.7039C86.3072 16.5397 86.5873 16.2822 86.7746 15.9636C87.1922 14.9917 87.3812 13.9413 87.3278 12.8892V11.6594H85.0359V9.8916H89.6197V18.5769H88.0391L87.802 16.5785C87.5948 17.2482 87.1634 17.8314 86.5763 18.2353C85.9892 18.6392 85.2801 18.8406 84.5618 18.8075C83.9088 18.8448 83.2564 18.7239 82.6633 18.4556C82.0702 18.1873 81.5548 17.78 81.1635 17.2703V17.2703Z" fill="#111111"/>
<path d="M94.6776 12.4293L90.8052 1.13071H93.1761L95.9421 9.58542L98.6291 1.13071H101L97.1276 12.4293V18.5782H94.7567V12.4293H94.6776Z" fill="#111111"/>
</g>
<defs>
<clipPath id="clip0">
<rect width="101" height="17.9855" fill="white" transform="translate(0 0.820862)"/>
</clipPath>
</defs>
</svg>
