<svg width="268" height="219" viewBox="0 0 268 219" fill="none" xmlns="http://www.w3.org/2000/svg">
<path d="M173.68 0H172.92C171.636 0.718392 170.614 1.81987 170 3.14722C168.875 5.28913 168.009 7.55462 167.42 9.89691C167.294 10.6012 166.934 11.244 166.398 11.7241C165.863 12.2042 165.181 12.4945 164.46 12.5493C162.256 12.9253 160.167 13.7949 158.355 15.0917C156.542 16.3884 155.052 18.0779 154 20.0313C152.553 22.5676 151.316 25.2154 150.3 27.9489C147.46 35.233 145.28 42.7546 142.6 50.0981C141.34 53.4433 141.28 53.4433 137.48 53.4433C132.94 53.4433 133.26 52.7505 133.2 57.699C133.2 59.2627 133.68 60.0544 135.36 59.9753C135.88 59.9753 136.66 59.7179 136.86 60.3909C137.06 61.0639 136.38 61.3608 135.98 61.7567C133.609 64.1392 130.608 65.8129 127.32 66.5864C123.52 67.5959 119.64 68.3876 115.94 69.6148C106.44 72.7621 97.66 77.1563 90.82 84.5988C86.8206 89.2214 83.6177 94.4643 81.34 100.117C74 117.219 70.44 135.231 67.68 153.422C66.38 161.953 65.46 170.524 64.76 179.154C64.4 183.39 64 187.685 64 192H130.66C130.771 191.129 130.61 190.245 130.2 189.466C129.559 187.887 128.517 186.498 127.175 185.434C125.833 184.369 124.237 183.665 122.54 183.39C121.14 183.073 120.98 182.657 121.84 181.569C123.243 179.716 124.318 177.641 125.02 175.433C128.28 165.912 129.54 155.975 131.12 146.138C132.013 138.624 134.348 131.348 138 124.701C140.849 119.809 144.649 115.523 149.18 112.092C150.84 110.845 150.9 110.845 151.18 112.963C151.38 114.369 151.42 115.814 151.52 117.239C152.12 126.59 152 135.973 151.16 145.306C150.405 152.541 150.304 159.828 150.86 167.08C151.655 175.499 153.174 183.836 155.4 192H182C181.653 189.857 180.656 187.869 179.142 186.3C177.627 184.731 175.667 183.653 173.52 183.212C171.013 182.817 168.45 182.952 166 183.607C164.8 183.885 164.3 183.607 164.2 182.321C163.373 171.842 164.046 161.3 166.2 151.007C168.868 139.125 170.91 127.114 172.32 115.022C172.845 110.139 174.398 105.419 176.88 101.166C179.26 96.9699 181.34 92.6153 183.68 88.3992C184.609 86.8662 185.168 85.1417 185.314 83.3599C185.46 81.5781 185.188 79.7871 184.52 78.1262C183.98 76.7208 183.46 75.2957 182.8 73.9497C180.8 70.0899 178.8 66.2697 176.96 62.3703C175.98 60.3909 176.2 60.1534 178.38 60.094C181.64 60.094 181.64 60.094 181.7 56.8478C181.7 56.4124 181.7 55.9769 181.7 55.5414C181.7 54.1757 181.18 53.4235 179.7 53.5621C178.7 53.5621 177.7 53.5621 176.66 53.5621C175.28 53.5621 174.88 52.988 175.22 51.5827C175.895 49.2981 177.222 47.2551 179.042 45.6995C180.862 44.1438 183.098 43.1418 185.48 42.814C189.911 42.4338 194.376 42.7207 198.72 43.6652C199.221 43.8215 199.765 43.7762 200.232 43.5391C200.7 43.3021 201.055 42.8923 201.22 42.3984C202.02 40.419 202.9 38.4396 203.8 36.4602C204.004 36.109 204.094 35.7044 204.058 35.3008C204.023 34.8973 203.863 34.5144 203.6 34.2037C197.2 26.1674 190.26 18.6656 180.8 13.8557C180.343 13.661 179.942 13.3561 179.635 12.9688C179.328 12.5816 179.123 12.1243 179.04 11.6388C178.505 8.80926 177.653 6.04751 176.5 3.40454C175.959 1.99643 174.969 0.801217 173.68 0V0Z" fill="black"/>
</svg>
