<svg width="268" height="219" viewBox="0 0 268 219" fill="none" xmlns="http://www.w3.org/2000/svg">
<path d="M246.2 66.5999C248.509 62.9261 251.578 59.7891 255.2 57.3999C257.2 55.9999 258.4 55.9999 259.6 58.5999C261.2 62.3999 262.6 66.3999 261.4 70.5999C261.182 71.3122 261.141 72.0671 261.28 72.799C261.419 73.5309 261.735 74.2177 262.2 74.7999C263.4 76.3999 264.4 77.9999 265.4 79.3999C266.761 81.1274 267.644 83.1825 267.96 85.359C268.276 87.5354 268.014 89.7567 267.2 91.7999C266.466 93.7835 266.327 95.9384 266.8 97.9999C267.2 99.9799 267.2 102.02 266.8 104C266.638 105.483 266.038 106.884 265.076 108.024C264.115 109.164 262.835 109.991 261.4 110.4C258.842 110.887 256.559 112.314 255 114.4C254.811 114.707 254.546 114.961 254.231 115.136C253.916 115.311 253.561 115.402 253.2 115.4C250.8 115.8 244.8 110.4 244.8 108V106.8C245 99.5999 244.6 98.9999 238 95.9999C236.619 95.5127 235.381 94.6877 234.4 93.5999C233.2 91.9999 231.6 92.1999 229.8 92.7999C228 93.3999 227 94.5999 227.2 96.5999C227.803 101.442 228.004 106.325 227.8 111.2C227.813 111.756 227.95 112.303 228.2 112.8C234.4 121.8 236.8 132.4 239.8 142.6C242.2 150.4 246.6 154.6 254.6 155.2C255.88 155.302 257.151 155.503 258.4 155.8C260.044 156.064 261.57 156.815 262.783 157.956C263.995 159.097 264.837 160.575 265.2 162.2C266.6 166.4 265.8 167.4 261.6 167.4H248.6C246.917 167.485 245.267 166.911 244 165.8C241.976 164.092 239.677 162.739 237.2 161.8C234.462 160.789 232.093 158.977 230.4 156.6C228.057 153.327 225.376 150.31 222.4 147.6C216.8 141.8 210.8 136.2 205.6 130.2C201.642 126.112 199.358 120.688 199.2 115C199.2 113.2 198.8 112.4 196.8 113.2C196.201 113.58 195.509 113.787 194.8 113.8C189.2 113.8 186.4 117.2 184.4 122.2C182.6 126.4 180.2 130.4 178 134.6C176.753 137.229 176.071 140.091 176 143C176 147.8 177.2 149.4 181.6 151C184.4 152 187 153 188.4 155.8C190 159 189.6 159.8 186.2 160H172.6C171.816 160.078 171.027 159.907 170.346 159.512C169.664 159.117 169.123 158.518 168.8 157.8L165.2 151.8C164.139 150.234 163.46 148.442 163.216 146.566C162.973 144.691 163.173 142.784 163.8 141C164.666 137.527 164.734 133.903 164 130.4C163.496 127.96 163.539 125.439 164.127 123.018C164.715 120.597 165.833 118.337 167.4 116.4C168.6 115 168.6 114.4 166.6 114C158.422 112.263 150.494 109.508 143 105.8C142.947 105.8 142.896 105.779 142.859 105.741C142.821 105.704 142.8 105.653 142.8 105.6C136.4 103.2 135.2 103.6 133.4 110.2C131.8 115.8 130.2 121.4 129 127.2C127.6 133.6 129.2 139.6 131.2 145.6C132 148 134.4 147.8 136.2 148.4C140.2 149.6 143.6 151.2 145.2 155.4C146.6 158.6 146.4 159 143 159C139.6 159 136.2 158.8 132.6 159C129.562 159.055 126.597 158.067 124.2 156.2C114.6 149.8 111.8 140 111 129.4C110.6 122.8 107 117.6 102.8 112.6C102 111.6 101.2 111.2 100 112C95.707 114.367 91.225 116.374 86.6001 118C76.9486 121.408 68.4793 127.517 62.2001 135.6C59.8554 138.55 58.3369 142.07 57.8001 145.8C57.2001 149.4 58.2001 151 61.8001 152C65.4001 153 67.2001 155 67.6001 158.8C67.8001 160.4 67.2001 161.2 65.6001 161.2H49.4001C48.8699 161.162 48.3566 160.997 47.9039 160.719C47.4513 160.44 47.0726 160.056 46.8001 159.6C44.2878 156.489 42.9434 152.598 43.0001 148.6C42.8951 141.69 43.4983 134.787 44.8001 128C45.067 125.967 45.8259 124.03 47.0109 122.358C48.1959 120.685 49.7712 119.326 51.6001 118.4C63.4001 112.8 69.6001 102.2 75.2001 91.1999C76.4001 88.9999 75.4001 88.5999 73.4001 88.7999C67.8028 89.5769 62.4995 91.7809 58.0001 95.1999C52.1085 99.4976 46.5585 104.245 41.4001 109.4C35.8994 114.987 28.6055 118.457 20.8001 119.2C6.20008 120 -0.599917 111.8 8.29324e-05 98.5999C0.134208 94.0991 1.83138 89.7854 4.80008 86.3999C5.83213 85.0619 7.23955 84.0619 8.84262 83.5275C10.4457 82.9931 12.1716 82.9487 13.8001 83.3999C16.8001 84.1999 17.6001 85.7999 16.4001 88.7999C15.8001 89.9999 15.0001 90.9999 14.4001 92.1999C13.5373 93.4258 12.8631 94.7741 12.4001 96.1999C10.2001 102.2 13.2001 106.4 19.4001 107C26.0001 107.6 31.4001 104.8 36.4001 100.8C42.4239 95.9764 47.8015 90.3972 52.4001 84.1999C55.8386 79.6747 60.1683 75.9025 65.1217 73.1161C70.0752 70.3298 75.5473 68.5886 81.2001 67.9999C85.8001 67.3999 89.8001 65.3999 94.2001 64.1999C102.429 61.6911 110.998 60.4766 119.6 60.5999C123.584 60.7658 127.553 60.0131 131.2 58.3999C141 54.3999 151.2 54.3999 161.4 56.3999C169.4 57.9999 177.4 59.9999 185.2 61.9999C189.842 62.8648 194.615 62.7285 199.2 61.5999C207.977 59.375 216.956 58.0349 226 57.5999C231.925 57.3116 237.83 58.479 243.2 60.9999C247.2 62.7999 247.2 62.7999 246.2 66.5999Z" fill="black"/>
</svg>
